# xmcd
#
# Track frame offsets: 
#        150
#        25029
#        42321
#        59181
#        83280
#        96767
#        108240
#        128040
#        143750
#        153551
#        174962
#
# Disc length: 2608 seconds
#
# Revision: 0
# Processed by: cddbd v1.5.2PL0 Copyright (c) Steve Scherf et al.
# Submitted via: ExactAudioCopy v0.95b4
#
DISCID=840a2e0b
DTITLE=Jon-Rae and the River - Knows What You Need
DYEAR=2006
DGENRE=Folk/Rock
TTITLE0=Roll
TTITLE1=Ghostsong
TTITLE2=All That I Had
TTITLE3=Just One More
TTITLE4=Fuck Me
TTITLE5=Nothing To Do
TTITLE6=When You Come Knocking
TTITLE7=Best Of My Time
TTITLE8=Hard In The City
TTITLE9=Eastern Migration
TTITLE10=Fire
EXTD=
EXTT0=
EXTT1=
EXTT2=
EXTT3=
EXTT4=
EXTT5=
EXTT6=
EXTT7=
EXTT8=
EXTT9=
EXTT10=
PLAYORDER=
